<svg width="31" height="23" viewBox="0 0 31 23" fill="none" xmlns="http://www.w3.org/2000/svg">
<path d="M16.167 12.4758L11.5277 20.4213L6.88848 12.4758H16.167ZM17.4098 11.7656H5.64062L11.5277 21.8267L17.4098 11.7656Z" fill="white"/>
<path d="M24.2328 2.59348L28.872 10.539H19.5936L24.2328 2.59348ZM24.2328 1.17322L18.3457 11.2342H30.1199L24.2328 1.17322Z" fill="white"/>
<path d="M0 1.17322L4.93613 10.0722L10.3301 1.39667L0 1.17322Z" fill="#FF7A00"/>
<path d="M11.5275 1.95276L16.7052 10.8021H6.33984L11.5275 1.95276Z" fill="#FF7A00"/>
<path d="M18.0388 12.7341L23.2215 21.8268H12.6096L17.8778 12.7341H18.0388Z" fill="#FF7A00"/>
<path d="M19.1609 12.1829L24.2328 21.1365L29.3753 12.1829H19.1609Z" fill="#FF7A00"/>
</svg>
